<?xml version="1.0" encoding="UTF-8" standalone="no"?>
<!-- Created with Inkscape (http://www.inkscape.org/) -->

<svg
   width="48mm"
   height="48mm"
   viewBox="0 0 48 48"
   version="1.1"
   id="svg1"
   inkscape:version="1.3.2 (091e20ef0f, 2023-11-25, custom)"
   sodipodi:docname="webssh-oidc-white-notext.svg"
   xmlns:inkscape="http://www.inkscape.org/namespaces/inkscape"
   xmlns:sodipodi="http://sodipodi.sourceforge.net/DTD/sodipodi-0.dtd"
   xmlns="http://www.w3.org/2000/svg"
   xmlns:svg="http://www.w3.org/2000/svg">
  <sodipodi:namedview
     id="namedview1"
     pagecolor="#ffffff"
     bordercolor="#666666"
     borderopacity="1.0"
     inkscape:showpageshadow="2"
     inkscape:pageopacity="0.0"
     inkscape:pagecheckerboard="0"
     inkscape:deskcolor="#d1d1d1"
     inkscape:document-units="mm"
     inkscape:zoom="1.0672963"
     inkscape:cx="94.163167"
     inkscape:cy="23.892147"
     inkscape:window-width="1274"
     inkscape:window-height="1397"
     inkscape:window-x="1280"
     inkscape:window-y="37"
     inkscape:window-maximized="1"
     inkscape:current-layer="layer1" />
  <defs
     id="defs1" />
  <g
     inkscape:label="Layer 1"
     inkscape:groupmode="layer"
     id="layer1"
     transform="translate(-93.927083,-105.30417)">
    <g
       id="g16"
       transform="matrix(1.3140207,0,0,1.3221445,-154.35641,-3.6840952)"
       style="stroke-width:0.758681">
      <g
         id="g12"
         style="stroke-width:0.758681">
        <path
           d="m 212.13808,115.59158 c -7.47674,2.95512 -15.93635,-0.7015 -18.8957,-8.16756 -2.95934,-7.466064 0.70251,-15.913578 8.17926,-18.868695 5.55036,-2.193731 11.64473,-0.743531 15.62609,3.20548"
           id="path1-6-1-4-7"
           style="fill:none;stroke:#ffffff;stroke-width:1.35601;stroke-linecap:round;stroke-linejoin:round;stroke-opacity:1"
           sodipodi:nodetypes="cssc" />
        <path
           d="m 211.40531,93.99092 5.95649,-2.354248 a 0.87231077,0.87355933 89.999793 0 0 0.49076,-1.132122 l -2.35762,-5.947977"
           id="path2-5-9-7"
           style="fill:none;stroke:#ffffff;stroke-width:1.35601;stroke-linecap:round;stroke-linejoin:round;stroke-opacity:1" />
      </g>
      <g
         id="g13"
         style="stroke-width:0.758681">
        <path
           id="path2-8-7-1-3"
           style="color:#000000;fill:#ffffff;fill-opacity:1;stroke-width:0.938239;stroke-linecap:round;stroke-linejoin:round;stroke-dasharray:none"
           d="m 213.94153,104.88915 c -0.95242,5.3e-4 -1.68919,0.36327 -2.17648,0.90996 -0.48275,0.5416 -0.71715,1.25571 -0.72156,1.96794 -0.003,0.005 -0.005,0.0111 -0.007,0.0168 v 0.002 c 0,0.71889 0.24095,1.44024 0.7283,1.98645 0.48734,0.5462 1.22405,0.90881 2.17648,0.90828 0.95339,5.3e-4 1.69364,-0.3621 2.18152,-0.90828 0.48789,-0.54619 0.72662,-1.26752 0.72662,-1.98645 -0.003,-0.002 -0.002,-0.006 -0.003,-0.008 -0.0775,-0.7223 -0.25093,-1.40028 -0.72318,-1.97805 -0.48782,-0.54667 -1.22813,-0.90943 -2.18152,-0.90996 z m -0.3633,0.44573 c -0.45844,0.67856 -0.75725,1.44482 -0.8309,2.26229 h -1.26485 c 0.0412,-0.56395 0.1889,-1.12911 0.56178,-1.54744 0.35008,-0.39276 0.87956,-0.63221 1.53397,-0.71485 z m 0.72829,0 c 0.65466,0.0828 1.18537,0.32231 1.53565,0.71485 0.37333,0.41836 0.52222,0.9835 0.56346,1.54744 h -1.26821 c -0.0736,-0.81747 -0.37246,-1.58373 -0.8309,-2.26229 z m -0.36499,0.11102 c 0.45494,0.63796 0.73965,1.3715 0.81576,2.15128 h -1.63152 c 0.0761,-0.77952 0.36111,-1.51346 0.81576,-2.15128 z m -2.46073,2.52636 h 1.26653 c 0.0737,0.81747 0.37246,1.58373 0.8309,2.2623 -0.65433,-0.0819 -1.18396,-0.31921 -1.53397,-0.71149 -0.37336,-0.41845 -0.52267,-0.98607 -0.56346,-1.55081 z m 1.64497,0 h 1.63152 c -0.0762,0.7798 -0.36076,1.51333 -0.81576,2.15128 -0.45471,-0.63782 -0.73963,-1.37175 -0.81576,-2.15128 z m 2.01165,0 h 1.26989 c -0.0408,0.56466 -0.19137,1.13069 -0.56514,1.54913 -0.35031,0.39218 -0.88079,0.63113 -1.53565,0.71317 0.45844,-0.67857 0.75725,-1.44483 0.8309,-2.2623 z m 7.74995,-5.53951 v 9.91021 c 0,0.43974 -0.35401,0.79375 -0.79375,0.79375 h -16.30064 c -0.43973,0 -0.79375,-0.35401 -0.79375,-0.79375 v -9.91021 z" />
        <path
           id="text14-6-4"
           style="font-weight:bold;font-size:4.93889px;line-height:1.25;font-family:Hermann;-inkscape-font-specification:'Hermann, Bold';letter-spacing:0px;word-spacing:0px;fill:#ffffff;fill-opacity:1;stroke-width:0.200734"
           d="m 210.94013,100.12083 v -0.518581 h -2.30152 v 0.518581 z m -4.07227,0 1.27424,-1.145821 v -0.296334 l -1.27424,-1.145822 -0.3556,0.395111 0.99766,0.898878 -0.99766,0.898878 z m -1.07488,-3.783997 h 16.30064 c 0.43974,0 0.79375,0.354013 0.79375,0.79375 v 4.186267 h -17.88814 v -4.186267 c 0,-0.439737 0.35402,-0.79375 0.79375,-0.79375 z" />
      </g>
    </g>
  </g>
</svg>
